<svg viewBox="0 0 155 105" xmlns="http://www.w3.org/2000/svg"><defs><linearGradient id="logoGradient" x1="0%" y1="100%" x2="100%" y2="0%"><stop offset="0%" stop-color="#6366f1"></stop><stop offset="100%" stop-color="#a855f7"></stop></linearGradient></defs><g fill="url(#logoGradient)"><circle cx="50" cy="50" r="50"></circle><path d="M85 75 C 95 68, 115 76, 128 93 C 145 88, 138 96, 152 85 C 145 98, 115 101, 100 82 C 90 79, 85 85, 85 75 Z"></path></g><g fill="#1a1a1a"><circle cx="50" cy="22" r="12"></circle><circle cx="50" cy="78" r="12"></circle><circle cx="22" cy="50" r="12"></circle><circle cx="78" cy="50" r="12"></circle><circle cx="50" cy="50" r="9"></circle><rect x="106" y="82" width="4" height="4" rx="1"></rect><rect x="113" y="85" width="4" height="4" rx="1"></rect><rect x="120" y="88" width="4" height="4" rx="1"></rect></g></svg>